<svg width="134" height="78" viewBox="0 0 134 78" fill="none" xmlns="http://www.w3.org/2000/svg">
<path d="M35.881 24.504C33.1603 24.504 30.4573 24.5923 27.772 24.769C25.0867 24.9103 22.4013 24.981 19.716 24.981C20.1753 25.0163 20.617 25.0517 21.041 25.087C21.5003 25.087 21.9773 25.087 22.472 25.087C24.0973 25.087 25.705 25.0693 27.295 25.034C28.9203 24.9633 30.5457 24.928 32.171 24.928H33.761C34.291 24.928 34.8387 24.9457 35.404 24.981C34.9093 25.299 34.3793 25.5287 33.814 25.67C33.284 25.8113 32.7363 25.9173 32.171 25.988C31.641 26.0233 31.0757 26.041 30.475 26.041C29.9097 26.041 29.3443 26.0587 28.779 26.094L28.302 25.458C27.4893 25.5993 26.6767 25.6877 25.864 25.723C25.0513 25.7583 24.2387 25.776 23.426 25.776L18.709 25.723L18.762 26.2L27.613 26.147C24.6097 26.3237 21.6593 26.4297 18.762 26.465C18.7973 26.9243 18.8327 27.3837 18.868 27.843C18.9033 28.267 18.9563 28.7087 19.027 29.168L18.391 29.327C18.6737 30.5283 18.868 31.8533 18.974 33.302C19.1153 34.7153 19.239 36.164 19.345 37.648C19.451 39.132 19.5923 40.5983 19.769 42.047C19.981 43.4603 20.2813 44.75 20.67 45.916L20.829 45.757C20.617 44.5557 20.4227 43.266 20.246 41.888C20.0693 40.4747 19.8927 39.0437 19.716 37.595C19.5747 36.111 19.4333 34.6623 19.292 33.249C19.186 31.9063 19.0977 30.652 19.027 29.486C19.1683 31.3587 19.3803 33.3197 19.663 35.369C19.981 37.4537 20.3167 39.5737 20.67 41.729C21.0233 43.849 21.359 45.9513 21.677 48.036C22.0303 50.1207 22.3483 52.117 22.631 54.025C22.7017 54.6257 22.79 55.2793 22.896 55.986C23.002 56.6573 23.055 57.3463 23.055 58.053V58.689C23.055 58.9363 23.0197 59.166 22.949 59.378C22.7017 59.378 22.4543 59.4133 22.207 59.484C21.995 59.59 21.7653 59.643 21.518 59.643C21.1293 59.643 20.882 59.4487 20.776 59.06C20.7053 58.6713 20.67 58.3357 20.67 58.053H20.193C20.1577 58.265 20.087 58.53 19.981 58.848C19.9103 59.2013 19.7867 59.537 19.61 59.855C19.4687 60.173 19.2743 60.438 19.027 60.65C18.815 60.862 18.5677 60.968 18.285 60.968C17.9317 60.968 17.6137 60.7207 17.331 60.226C17.0483 59.7313 16.7833 59.0953 16.536 58.318C16.324 57.5407 16.1297 56.6927 15.953 55.774C15.8117 54.82 15.6703 53.919 15.529 53.071C15.423 52.1877 15.317 51.3927 15.211 50.686C15.1403 49.9793 15.0697 49.467 14.999 49.149C14.6457 47.665 14.31 46.0397 13.992 44.273C13.7093 42.5063 13.462 40.722 13.25 38.92C13.038 37.118 12.8613 35.3337 12.72 33.567C12.614 31.765 12.561 30.0867 12.561 28.532C12.561 28.2847 12.561 28.055 12.561 27.843C12.5963 27.5957 12.614 27.3483 12.614 27.101V26.783C12.614 26.6417 12.5963 26.5003 12.561 26.359C10.4763 26.3237 8.49767 26.2353 6.625 26.094C4.75233 25.9173 2.66767 25.6877 0.371 25.405C0.406333 25.193 0.424 24.9633 0.424 24.716C0.424 24.4687 0.441667 24.239 0.477 24.027C0.547667 23.815 0.636 23.6383 0.742 23.497C0.883333 23.3203 1.113 23.232 1.431 23.232C1.643 23.232 1.89033 23.2673 2.173 23.338L2.332 22.861C1.908 22.6843 1.41333 22.4017 0.848 22.013C0.282667 21.6243 0 21.165 0 20.635C0 20.317 0.123667 20.0873 0.371 19.946C0.618333 19.7693 0.918667 19.6457 1.272 19.575C1.62533 19.5043 1.97867 19.469 2.332 19.469C2.68533 19.4337 2.95033 19.416 3.127 19.416C4.399 19.416 5.65333 19.4867 6.89 19.628C8.162 19.7693 9.434 19.84 10.706 19.84C13.9213 19.84 17.119 19.893 20.299 19.999C23.479 20.0697 26.6767 20.105 29.892 20.105C30.528 20.105 31.1463 20.0167 31.747 19.84C32.383 19.6633 33.019 19.575 33.655 19.575C33.9023 19.575 34.1143 19.6457 34.291 19.787C34.503 19.9283 34.609 20.1403 34.609 20.423C33.655 20.5997 32.6833 20.741 31.694 20.847C30.8107 20.9177 29.9097 20.9883 28.991 21.059C29.9097 21.059 30.8107 21.0237 31.694 20.953C32.648 20.8823 33.6197 20.8117 34.609 20.741V21.748L35.563 21.589C35.8457 21.6597 36.1107 21.801 36.358 22.013C36.6053 22.1897 36.729 22.4547 36.729 22.808C36.729 23.126 36.6407 23.444 36.464 23.762C36.2873 24.0447 36.093 24.292 35.881 24.504ZM17.278 26.465C17.3487 27.4897 17.437 28.6203 17.543 29.857C17.6843 31.0937 17.8257 32.348 17.967 33.62C18.1083 34.892 18.2497 36.1463 18.391 37.383C18.5677 38.5843 18.7267 39.6973 18.868 40.722C18.762 39.7327 18.6383 38.6197 18.497 37.383C18.391 36.1463 18.285 34.892 18.179 33.62C18.073 32.348 17.967 31.0937 17.861 29.857C17.7903 28.6203 17.755 27.4897 17.755 26.465H17.278ZM26.924 21.059H24.009C23.1257 21.059 22.2423 21.0413 21.359 21.006C21.783 21.0767 22.1893 21.1473 22.578 21.218C23.0727 21.324 23.6203 21.377 24.221 21.377C24.645 21.377 25.0867 21.3417 25.546 21.271C26.0407 21.2003 26.5 21.1297 26.924 21.059ZM17.49 26.2H17.755V25.723H17.49V26.2ZM46.3899 26.094C46.4252 26.2707 46.6196 26.359 46.9729 26.359H47.0789C47.2909 26.359 47.4322 26.3767 47.5029 26.412C49.3402 26.9773 51.1599 27.8077 52.9619 28.903C54.7992 29.963 56.4422 31.2527 57.8909 32.772C59.3749 34.256 60.5586 35.952 61.4419 37.86C62.3606 39.768 62.8199 41.8173 62.8199 44.008C62.8199 45.916 62.4489 47.7533 61.7069 49.52C60.9649 51.2867 59.9402 52.8237 58.6329 54.131C59.9756 52.965 61.0356 51.5163 61.8129 49.785C62.6256 48.0183 63.0319 46.128 63.0319 44.114C63.0319 41.8527 62.5549 39.7503 61.6009 37.807C60.6469 35.8283 59.4279 34.0617 57.9439 32.507C56.4599 30.9523 54.7992 29.6273 52.9619 28.532C51.1599 27.4013 49.3932 26.5357 47.6619 25.935C49.0046 25.935 50.3649 26.2353 51.7429 26.836C53.1562 27.4367 54.4989 28.2317 55.7709 29.221C57.0429 30.175 58.2089 31.288 59.2689 32.56C60.3642 33.7967 61.2829 35.0687 62.0249 36.376L61.6539 36.906C62.3606 37.966 62.8906 39.1143 63.2439 40.351C63.6326 41.5877 63.8269 42.8597 63.8269 44.167C63.8269 46.6757 63.2792 48.884 62.1839 50.792C61.1239 52.6647 59.7636 54.237 58.1029 55.509C56.4776 56.7457 54.6756 57.682 52.6969 58.318C50.7536 58.954 48.9162 59.272 47.1849 59.272C46.1956 59.272 45.1886 59.166 44.1639 58.954C43.1746 58.742 42.1676 58.3887 41.1429 57.894V58.212C42.1322 58.7773 43.1392 59.166 44.1639 59.378C45.2239 59.59 46.2662 59.696 47.2909 59.696C49.8349 59.696 52.3259 59.1307 54.7639 58C57.2372 56.9047 59.3219 55.35 61.0179 53.336C59.3926 55.4207 57.3609 57.046 54.9229 58.212C52.5202 59.378 50.0116 59.961 47.3969 59.961C44.7116 59.961 42.5386 59.431 40.8779 58.371C39.2172 57.3463 37.9099 56.0743 36.9559 54.555C36.0372 53.0357 35.4189 51.428 35.1009 49.732C34.7829 48.036 34.6239 46.5167 34.6239 45.174C34.6239 43.372 34.8536 41.6053 35.3129 39.874C35.8076 38.1427 36.5496 36.5527 37.5389 35.104C38.5282 33.6553 39.8002 32.4187 41.3549 31.394C42.9096 30.334 44.7822 29.592 46.9729 29.168L45.4359 28.797C44.6939 28.6203 44.1639 28.4083 43.8459 28.161C43.5279 27.9137 43.3689 27.7017 43.3689 27.525C43.3689 27.2423 43.6692 26.942 44.2699 26.624C44.9059 26.2707 45.6126 26.094 46.3899 26.094ZM44.0049 32.772C44.9589 32.4187 45.8776 32.242 46.7609 32.242C47.6442 32.242 48.3156 32.3833 48.7749 32.666C49.2696 32.9133 49.5169 33.1783 49.5169 33.461C49.5169 33.6377 49.3049 33.832 48.8809 34.044C48.4922 34.256 47.9799 34.5563 47.3439 34.945C46.7432 35.2983 46.0719 35.7577 45.3299 36.323C44.6232 36.8883 43.9519 37.6127 43.3159 38.496C42.7152 39.344 42.2029 40.3863 41.7789 41.623C41.3902 42.8597 41.1959 44.3083 41.1959 45.969C41.1959 48.407 41.7436 50.2443 42.8389 51.481C43.9342 52.7177 45.4536 53.336 47.3969 53.336C48.6336 53.336 49.8879 53.124 51.1599 52.7C52.4672 52.276 53.6332 51.6753 54.6579 50.898C55.7179 50.1207 56.5659 49.1667 57.2019 48.036C57.8732 46.9053 58.2089 45.6333 58.2089 44.22C58.2089 43.16 58.0146 42.1 57.6259 41.04C57.2726 39.98 56.7602 38.973 56.0889 38.019C55.4529 37.0297 54.6756 36.111 53.7569 35.263C52.8736 34.415 51.9019 33.6907 50.8419 33.09C49.8172 32.5247 48.9692 32.1007 48.2979 31.818C47.6619 31.5 47.2026 31.1997 46.9199 30.917C46.6372 31.0583 46.2309 31.235 45.7009 31.447C45.2062 31.6237 44.5349 31.9063 43.6869 32.295L44.0049 32.772ZM47.5559 30.281C49.1812 30.811 50.7359 31.606 52.2199 32.666C53.4919 33.62 54.6579 34.6623 55.7179 35.793C54.6932 34.5917 53.5802 33.514 52.3789 32.56C51.0009 31.4293 49.4639 30.546 47.7679 29.91L47.5559 30.281ZM57.8379 48.354C57.3079 49.4847 56.5659 50.4917 55.6119 51.375C56.2479 50.951 56.7779 50.4387 57.2019 49.838C57.6612 49.2373 58.0322 48.6367 58.3149 48.036C58.5976 47.4353 58.8096 46.8877 58.9509 46.393C59.0569 45.9337 59.1452 45.5627 59.2159 45.28C58.8272 46.1987 58.3679 47.2233 57.8379 48.354ZM61.3889 52.912C61.3536 52.9827 61.3006 53.0533 61.2299 53.124C61.1946 53.1593 61.1592 53.177 61.1239 53.177C61.0886 53.177 61.1769 53.0003 61.3889 52.647C61.6009 52.2583 61.8482 51.8167 62.1309 51.322C62.4489 50.792 62.7492 50.2443 63.0319 49.679C63.2792 49.255 63.4559 48.884 63.5619 48.566C63.0672 50.0853 62.3429 51.534 61.3889 52.912ZM64.3569 44.326C64.3569 44.8913 64.3216 45.4567 64.2509 46.022C64.1802 46.552 64.0566 47.0467 63.8799 47.506C64.1272 46.6227 64.2509 45.6333 64.2509 44.538C64.2509 43.7253 64.1802 42.9303 64.0389 42.153C63.9329 41.4817 63.7916 40.828 63.6149 40.192C63.7916 40.828 63.9506 41.464 64.0919 42.1C64.2686 42.8067 64.3569 43.5487 64.3569 44.326ZM47.5559 29.433L47.0789 29.221C47.0436 29.2917 46.9906 29.3623 46.9199 29.433C46.8492 29.5037 46.8139 29.5743 46.8139 29.645C46.8139 29.7157 46.8492 29.8217 46.9199 29.963C47.0259 30.069 47.1142 30.1573 47.1849 30.228L47.5559 29.433ZM56.0359 36.164C55.9299 36.0227 55.8239 35.899 55.7179 35.793C55.8239 35.9343 55.9299 36.058 56.0359 36.164ZM63.5619 48.566C63.5972 48.4953 63.6149 48.4247 63.6149 48.354C63.6149 48.4247 63.5972 48.4953 63.5619 48.566ZM63.6679 48.248C63.6326 48.2833 63.6149 48.3187 63.6149 48.354C63.6149 48.3187 63.6326 48.2833 63.6679 48.248ZM68.0102 72.257C68.2928 72.5397 68.7698 72.7517 69.4412 72.893C70.1478 73.0697 70.8192 73.158 71.4552 73.158C72.6212 73.158 73.7342 72.7693 74.7942 71.992C75.8542 71.25 76.8612 70.2253 77.8152 68.918C78.8045 67.6107 79.7408 66.109 80.6242 64.413C81.5075 62.717 82.3555 60.9327 83.1682 59.06H83.1152C82.4085 60.6147 81.6488 62.2047 80.8362 63.83C80.0235 65.4907 79.1402 66.9923 78.1862 68.335C77.2322 69.713 76.1898 70.826 75.0592 71.674C73.9638 72.5573 72.7802 72.999 71.5082 72.999C70.4835 72.999 69.4765 72.6987 68.4872 72.098C69.0172 71.9213 69.5118 71.833 69.9712 71.833C70.1125 71.833 70.3598 71.8683 70.7132 71.939C71.2785 71.939 71.7555 71.9213 72.1442 71.886C72.5328 71.8507 72.9038 71.7623 73.2572 71.621C73.6105 71.515 73.9462 71.3207 74.2642 71.038C74.5822 70.7907 74.9355 70.455 75.3242 70.031L75.9602 70.19C76.9848 68.8473 77.9388 67.3987 78.8222 65.844C79.7408 64.2893 80.6418 62.717 81.5252 61.127L82.4792 59.007L82.0022 58.901L81.2072 60.809C80.3945 62.399 79.5465 63.9537 78.6632 65.473C77.7798 67.0277 76.7728 68.441 75.6422 69.713C76.8788 68.1937 78.0095 66.4977 79.0342 64.625C80.0588 62.7523 80.9952 60.809 81.8432 58.795L81.5252 58.265C81.3485 57.4523 81.0835 56.6573 80.7302 55.88C80.4828 55.2793 80.2002 54.661 79.8822 54.025C80.5182 55.5443 80.9598 57.0107 81.2072 58.424C80.8538 58.318 80.5535 58.106 80.3062 57.788C80.0942 57.4347 79.8822 57.0283 79.6702 56.569C79.4935 56.1097 79.3168 55.6327 79.1402 55.138C78.9988 54.6433 78.8045 54.1487 78.5572 53.654L78.8222 53.177C78.2568 52.2937 77.6385 51.1983 76.9672 49.891C76.3312 48.5837 75.6422 47.241 74.9002 45.863C74.1935 44.485 73.4692 43.1423 72.7272 41.835C71.9852 40.5277 71.2608 39.4323 70.5542 38.549L70.3952 38.708L77.0202 50.633C75.6775 48.3717 74.2465 46.075 72.7272 43.743C71.2078 41.411 69.8475 38.8317 68.6462 36.005C68.6462 35.7577 68.6108 35.4397 68.5402 35.051C68.4695 34.627 68.3812 34.203 68.2752 33.779C68.2045 33.3197 68.1162 32.878 68.0102 32.454C67.9042 31.9947 67.7982 31.5883 67.6922 31.235L69.0702 30.811C69.2468 30.811 69.4058 30.8993 69.5472 31.076C69.6885 31.2173 69.8122 31.5353 69.9182 32.03C70.0948 32.03 70.2538 31.8887 70.3952 31.606C70.5365 31.3233 70.6778 31.0053 70.8192 30.652C70.9958 30.2987 71.1725 29.9807 71.3492 29.698C71.5612 29.4153 71.8262 29.274 72.1442 29.274C72.6035 29.274 73.0098 29.592 73.3632 30.228C73.7518 30.8287 74.1052 31.5707 74.4232 32.454C74.7765 33.3373 75.1475 34.2737 75.5362 35.263C75.9248 36.217 76.3842 37.0473 76.9142 37.754C77.4795 38.708 78.0448 39.6443 78.6102 40.563C79.2108 41.4817 79.7585 42.4533 80.2532 43.478C80.7832 44.8913 81.4722 46.3223 82.3202 47.771C83.1682 49.1843 83.8395 50.6683 84.3342 52.223C85.1822 49.3963 85.8535 46.8877 86.3482 44.697C86.8782 42.471 87.2845 40.2627 87.5672 38.072C87.9558 36.9413 88.2915 35.6693 88.5742 34.256C88.8568 32.8427 88.9982 31.4647 88.9982 30.122L90.1642 30.175C90.3408 30.175 90.4998 30.2633 90.6412 30.44C90.7825 30.5813 90.8532 30.9523 90.8532 31.553C90.8532 31.7297 90.8355 31.924 90.8002 32.136C90.8002 32.3127 90.7825 32.5423 90.7472 32.825H91.2242C91.5422 31.659 91.9132 30.7227 92.3372 30.016C92.7612 29.3093 93.1675 28.956 93.5562 28.956C93.8388 28.956 94.1038 29.2563 94.3512 29.857C94.6338 30.4577 94.7752 31.4647 94.7752 32.878C94.7752 35.2453 94.4925 37.807 93.9272 40.563C93.3618 43.319 92.7788 46.0397 92.1782 48.725C91.1888 52.329 90.0228 55.7917 88.6802 59.113C87.3375 62.4343 85.6415 65.8087 83.5922 69.236C82.9562 70.19 82.2318 71.1793 81.4192 72.204C80.6418 73.264 79.7232 74.218 78.6632 75.066C77.6385 75.914 76.4548 76.603 75.1122 77.133C73.8048 77.6983 72.3032 77.981 70.6072 77.981C69.3705 77.981 68.5225 77.822 68.0632 77.504C67.6392 77.186 67.4272 76.9387 67.4272 76.762C67.4272 76.656 67.4625 76.5323 67.5332 76.391C68.5932 76.7443 69.7238 76.921 70.9252 76.921C71.7732 76.921 72.7448 76.762 73.8402 76.444C74.9708 76.1613 75.9778 75.7197 76.8612 75.119C76.0485 75.543 75.1298 75.914 74.1052 76.232C73.1158 76.55 72.2148 76.709 71.4022 76.709C70.1302 76.709 68.8935 76.55 67.6922 76.232C67.6922 75.9847 67.5862 75.755 67.3742 75.543C67.1975 75.331 66.9855 75.119 66.7382 74.907C66.4908 74.7303 66.2612 74.536 66.0492 74.324C65.8725 74.112 65.7842 73.8647 65.7842 73.582C65.7842 73.2993 65.8725 73.0873 66.0492 72.946C66.2258 72.8047 66.4202 72.6987 66.6322 72.628C66.8795 72.5573 67.1268 72.4867 67.3742 72.416C67.6215 72.3807 67.8335 72.3277 68.0102 72.257ZM85.8182 62.876C84.7935 64.7133 83.7335 66.5507 82.6382 68.388C81.5428 70.2607 80.1648 72.0273 78.5042 73.688C80.2002 72.098 81.5958 70.3667 82.6912 68.494C83.8218 66.6567 84.8642 64.784 85.8182 62.876ZM81.8432 49.573L83.5922 53.919L83.9102 53.601L81.8432 49.573ZM84.6522 53.177C84.7935 52.753 84.9172 52.329 85.0232 51.905L85.3412 50.633L85.0232 50.474L84.4402 52.541C84.5108 52.8237 84.5815 53.0357 84.6522 53.177ZM78.6632 51.269C78.2745 50.3503 77.8152 49.4493 77.2852 48.566C76.7905 47.6473 76.2428 46.7463 75.6422 45.863C76.1722 46.8877 76.7198 47.9123 77.2852 48.937C77.8505 49.891 78.3805 50.8627 78.8752 51.852L78.6632 51.269ZM79.9352 45.227C79.9705 45.757 80.0412 46.1987 80.1472 46.552C80.2885 46.9053 80.4298 47.2233 80.5712 47.506C80.7478 47.7533 80.9068 48.0007 81.0482 48.248C81.2248 48.46 81.3838 48.725 81.5252 49.043L81.4192 48.884L79.9352 45.227ZM84.0162 53.813L83.6452 54.237C83.7158 54.343 83.7865 54.449 83.8572 54.555C83.9278 54.6257 83.9808 54.7317 84.0162 54.873L84.2812 54.449L84.0162 53.813Z" fill="#FFE70F"/>
<rect width="14.0525" height="12.6075" transform="matrix(0.931464 0.363833 -0.330829 0.943691 112.171 42.919)" fill="#FF928B"/>
<rect width="2.9899" height="3.25356" transform="matrix(0.931464 0.363833 -0.330829 0.943691 114.515 41.6527)" fill="#FF928B"/>
<rect width="2.9899" height="3.25356" transform="matrix(0.931464 0.363833 -0.330829 0.943691 121.258 44.2868)" fill="#FF928B"/>
<rect width="9.25068" height="8.06035" transform="matrix(0.999917 -0.0129128 -0.00595145 0.999982 123.993 54.9398)" fill="#8BD5FF"/>
<rect width="3.63292" height="2.30617" transform="matrix(0.999917 -0.0129128 -0.00595145 0.999982 126.619 53.7811)" fill="#8BD5FF"/>
</svg>
